<svg width="408" height="70" viewBox="0 0 408 70" fill="none" xmlns="http://www.w3.org/2000/svg">
<path d="M125.712 36.7283H139.11C139.196 36.4295 139.229 35.7637 139.258 35.1815C139.276 34.8156 139.293 34.4827 139.32 34.2949L137.075 33.3217C136.304 33.0438 135.743 32.4873 135.602 31.5141L132.095 11.4269C131.745 9.48069 132.586 8.36828 133.638 8.09033L135.743 7.53443C135.813 6.97853 135.743 5.86612 135.602 5.17094H124.66L118.908 21.6448L117.015 27.6922H116.593L114.91 21.7835L109.579 5.17094H98.075C98.005 5.65751 97.9351 7.18654 97.9351 7.60377L100.741 8.50756C101.512 8.71617 102.144 9.61936 101.933 10.6624L98.3561 30.125C98.1456 31.5148 97.2335 32.9744 96.041 33.6003L94.498 34.4341C94.428 34.9906 94.498 35.9638 94.6379 36.659H106.422C106.563 36.1724 106.563 34.7127 106.563 34.2955L102.775 32.9744C102.284 32.9051 102.144 32.4185 102.284 31.5847L104.669 15.806L105.09 12.1915H105.37L113.367 37.7014L118.417 36.2417L126.414 12.4694H126.624L127.045 16.2233L128.798 29.0126C129.009 30.9589 128.728 33.461 126.975 34.0175L125.572 34.5041C125.572 35.06 125.642 36.0331 125.712 36.7283Z" fill="white"/>
<path fill-rule="evenodd" clip-rule="evenodd" d="M139.18 24.9115C139.18 33.3223 143.529 37.2149 150.684 37.2149C157.558 37.2149 162.678 30.8202 162.608 24.4249C162.608 16.0146 158.75 11.8442 151.034 11.8442C144.441 11.8442 139.18 18.4475 139.18 24.9115ZM145.493 24.4948C145.493 20.8103 146.054 15.6667 150.613 15.6667C155.453 15.6667 156.365 20.3937 156.295 24.4948C156.295 29.0819 155.523 33.1831 151.385 33.1831C146.685 33.1831 145.493 29.0126 145.493 24.4948Z" fill="white"/>
<path d="M164.151 35.2686C166.747 36.4503 169.272 37.2149 172.779 37.2149C177.268 37.2149 182.809 35.3379 182.879 29.4298C182.879 25.1201 179.092 23.2432 175.725 21.7835C175.348 21.6156 174.978 21.4565 174.62 21.3023C172.305 20.3072 170.464 19.5161 170.464 17.891C170.464 16.6399 171.516 15.4581 173.761 15.4581C177.549 15.4581 178.951 17.4743 179.442 19.6985L181.617 19.9765L182.389 13.7205C179.443 12.4001 176.707 11.9135 174.322 11.9135C169.552 11.9135 165.204 14.277 165.204 19.4206C165.204 24.0083 168.641 25.9545 171.797 27.275C171.935 27.3356 172.072 27.3952 172.206 27.454C175.002 28.6739 176.917 29.5096 176.917 31.1675C176.917 33.0444 175.444 33.7396 172.919 33.7396C169.763 33.7396 167.378 32.0013 166.957 28.7346L164.572 28.6653L164.151 35.2686Z" fill="white"/>
<path d="M197.4 15.5974C199.223 15.5974 201.749 18.0996 203.151 19.7679C204.905 18.934 205.677 17.7523 205.607 15.5281C205.607 12.678 200.977 11.7742 197.54 11.7742C189.894 11.7742 185.335 18.1695 185.335 24.2862C185.335 33.4616 188.351 37.2149 196.909 37.2149C200.416 37.2149 202.941 36.2417 205.256 34.8514L204.274 31.654C202.45 32.0713 200.346 32.4186 198.592 32.4186C193.682 32.4186 191.438 29.0819 191.438 24.4249C191.438 17.7523 193.612 15.5974 197.4 15.5974Z" fill="white"/>
<path fill-rule="evenodd" clip-rule="evenodd" d="M206.588 24.9115C206.588 33.3223 210.938 37.2149 218.092 37.2149C224.896 37.2149 230.087 30.8202 230.016 24.4249C230.016 16.0146 226.159 11.8442 218.443 11.8442C211.849 11.8442 206.588 18.4475 206.588 24.9115ZM212.902 24.4948C212.902 20.8103 213.463 15.6667 218.022 15.6667C222.862 15.6667 223.704 20.3937 223.704 24.4948C223.704 29.0819 222.932 33.1831 218.794 33.1831C214.094 33.1831 212.902 29.0126 212.902 24.4948Z" fill="white"/>
<path d="M242.573 36.589L248.185 21.5755L254.006 37.7708L258.355 36.7283L264.598 18.5861C265.299 16.4313 266.211 15.3888 267.053 14.7636C267.123 14.555 267.123 12.6105 267.123 12.4004L258.776 12.4001C258.547 13.0806 258.599 14.178 258.625 14.7477C258.631 14.876 258.636 14.9775 258.636 15.0415L259.898 15.5281C260.67 15.8754 261.021 16.7792 260.88 17.5437L257.233 30.125L251.131 11.9135L246.992 13.0953L241.38 30.125L237.803 15.4581H240.819C240.889 15.1802 240.959 12.8173 240.959 12.4001H230.438C230.157 13.5119 230.157 14.2071 230.157 15.1802C231.139 15.806 231.701 16.2233 232.192 17.891L238.013 37.7014L242.573 36.589Z" fill="white"/>
<path d="M302.196 13.5818C302.687 13.6512 304.089 13.6512 304.651 13.4425H304.721V5.24028H275.541V13.4425C276.102 13.6512 277.645 13.7205 278.066 13.5818C278.557 11.0097 279.539 9.13279 281.643 9.06346L287.044 8.85484V24.5648L286.904 30.1256C286.904 31.3074 286.132 32.9057 285.15 33.1837L282.204 34.0181C282.134 34.574 282.204 35.9644 282.345 36.6596H297.917C297.987 36.173 298.057 34.4347 298.057 34.0181L294.199 33.1837C293.358 32.9751 293.287 32.6278 293.287 31.5853L293.076 24.4955V8.85484L298.127 9.06346C300.512 9.20274 301.705 10.8011 302.196 13.5818Z" fill="white"/>
<path d="M307.597 33.3917L304.931 34.2261C304.931 35.2686 305.001 36.1025 305.142 36.7283H318.539C318.75 36.0331 318.82 34.9906 318.82 34.1562L315.593 33.3223C315.173 33.1831 314.962 32.8358 314.891 31.7234L314.822 24.5642V13.8598C314.822 12.3307 314.12 11.9135 312.788 11.9135C310.754 11.9135 307.667 12.3307 305.352 12.8866V15.806H308.929V24.5642L308.789 31.4454C308.789 32.3492 308.368 33.1831 307.597 33.3917Z" fill="white"/>
<path d="M312.227 0.583252C311.454 0.583252 307.877 3.57258 307.877 4.47576C307.877 5.24089 310.893 8.36828 311.665 8.36828C312.507 8.36828 315.523 5.10161 315.523 4.47576C315.523 3.71125 312.927 0.583252 312.227 0.583252Z" fill="white"/>
<path d="M352.629 36.7283H364.344C364.483 36.3145 364.561 35.8401 364.658 35.2447C364.708 34.9396 364.763 34.6028 364.835 34.2261L362.029 33.531C361.468 33.3917 361.328 33.0444 361.328 32.2099L361.187 24.5642V19.9765C361.187 15.3195 360.977 11.9135 353.541 11.9135C349.543 11.9135 346.948 13.7205 345.194 15.0415C344.423 13.0953 342.599 11.9135 338.11 11.9135C334.112 11.9135 331.726 13.6512 330.113 14.9716V13.5818C330.113 12.4694 329.692 11.9828 328.43 11.9828C326.395 11.9828 322.958 12.3307 320.644 12.8866V15.806H324.291V24.4249L324.151 31.3761C324.151 32.6272 323.73 33.253 322.888 33.531L320.854 34.2955C320.854 34.5028 320.851 34.6911 320.848 34.8673C320.837 35.5181 320.829 36.0023 320.994 36.659H333.41C333.551 35.9638 333.621 35.1293 333.621 34.0175L330.885 33.1831C330.323 33.0444 330.253 32.3492 330.253 31.5148L330.113 24.4249V17.5437C331.305 16.9178 333.76 16.2233 336.006 16.2233C339.583 16.2233 339.723 18.3082 339.723 21.5755V24.4948L339.583 31.7234C339.583 32.4185 339.372 33.1137 338.671 33.461L337.128 34.1562C337.058 35.1293 337.128 35.8245 337.268 36.659H349.052C349.263 36.0331 349.333 35.2686 349.333 34.0869L346.317 33.3917C345.826 33.253 345.685 32.9051 345.685 32.0713L345.545 24.4249V19.8359C345.545 18.9332 345.545 18.0992 345.475 17.3351C346.808 16.7792 349.262 16.2233 351.367 16.2233C355.014 16.2233 355.155 18.3082 355.155 21.5755V24.4948L355.014 31.4454C355.014 32.3492 354.664 33.0444 354.032 33.3917L352.49 34.1562C352.419 35.1293 352.489 35.8938 352.629 36.7283Z" fill="white"/>
<path fill-rule="evenodd" clip-rule="evenodd" d="M378.864 32.2799C374.725 32.2799 371.709 31.0981 371.428 25.2594V25.1894H386.93V23.3824C386.93 16.7792 384.265 11.7742 376.969 11.7742C369.815 11.7742 365.255 18.3082 365.255 25.0507C365.255 34.9213 369.885 37.1455 377.741 37.1455C380.547 37.1455 383.984 36.1724 386.439 34.782L385.457 31.4454C382.862 32.0713 380.477 32.2799 378.864 32.2799ZM371.288 22.27C371.428 18.3082 373.392 15.1802 376.408 15.1802C379.635 15.1802 380.687 18.0302 380.617 22.27H371.288Z" fill="white"/>
<path d="M389.175 35.2686C391.77 36.4503 394.295 37.2149 397.802 37.2149C402.222 37.2149 407.833 35.3379 407.903 29.4298C407.903 25.1201 404.116 23.2432 400.749 21.7835C400.372 21.6156 400.002 21.4565 399.643 21.3023C397.328 20.3072 395.488 19.516 395.488 17.891C395.488 16.6399 396.54 15.4581 398.784 15.4581C402.572 15.4581 403.975 17.4743 404.466 19.6985L406.641 19.9765L407.412 13.7205C404.466 12.4001 401.731 11.9135 399.345 11.9135C394.576 11.9135 390.227 14.277 390.227 19.4206C390.227 24.0083 393.664 25.9545 396.82 27.275C396.96 27.3359 397.097 27.3958 397.232 27.4549C400.026 28.6743 401.941 29.51 401.941 31.1675C401.941 33.0444 400.468 33.7396 397.943 33.7396C394.786 33.7396 392.401 32.0013 391.98 28.7346L389.596 28.6653L389.175 35.2686Z" fill="white"/>
<path d="M46.6461 36.7975H58.3604C58.5703 36.1723 58.6409 35.4072 58.7108 34.226L56.0453 33.5309C55.4843 33.3916 55.3437 33.0443 55.3437 32.2798L55.2038 24.5641V19.9764C55.2038 15.3194 54.8527 11.9134 47.4176 11.9134C43.4895 11.9134 40.8945 13.6511 39.2116 14.9715V4.26705C39.2116 3.22459 38.7905 2.73802 37.528 2.73802C35.494 2.73802 32.1968 3.15525 29.8823 3.71115V6.49187H33.4587V24.5641L33.3188 31.376C33.3188 32.6271 32.9677 33.3222 32.1263 33.6002L30.0217 34.434C30.0217 34.6424 30.0185 34.8284 30.0155 35.001C30.0046 35.6346 29.9968 36.0872 30.1622 36.7975H42.297C42.5075 36.1023 42.5774 35.3378 42.5774 34.226L40.0524 33.3916C39.4914 33.1136 39.3509 32.4878 39.3509 31.5846L39.2109 24.5641V17.6129C40.4735 17.057 43.209 16.3618 45.3836 16.3618C48.9606 16.3618 49.2411 18.4474 49.2411 21.714V24.5641L49.1011 31.5147C49.1011 32.4878 48.8206 33.183 48.1191 33.5309L46.5055 34.2954C46.4356 35.2685 46.5055 35.9637 46.6461 36.7975Z" fill="white"/>
<path d="M26.6546 13.5817C27.1456 13.6511 28.5486 13.6511 29.1096 13.4424H29.1802V5.24018H0V13.4424C0.56098 13.6511 2.10398 13.7204 2.52503 13.5817C3.01604 11.0096 3.99806 9.1327 6.10266 9.06336L11.5038 8.85475V24.6334L11.3632 30.1942C11.3632 31.376 10.5917 32.9743 9.60971 33.2529L6.66364 34.0868C6.59367 34.6427 6.66364 36.033 6.8048 36.7282H22.446C22.5166 36.2416 22.5865 34.504 22.5865 34.0868L18.7284 33.2529C17.8869 33.0443 17.8164 32.6964 17.8164 31.6539L17.5359 24.4954V8.85475L22.5865 9.06336C24.9716 9.20264 26.1635 10.801 26.6546 13.5817Z" fill="white"/>
<path fill-rule="evenodd" clip-rule="evenodd" d="M73.3006 32.2803C69.1626 32.2803 66.146 31.0985 65.8655 25.2597V25.1898H81.3673V23.3828C81.3673 16.7795 78.7017 11.7746 71.4071 11.7746C64.2525 11.7746 59.6928 18.3086 59.6928 25.0511C59.6928 34.9217 64.3225 37.1459 72.1786 37.1459C74.9842 37.1459 78.4212 36.1728 80.8763 34.7824L79.8943 31.4458C77.2993 32.0716 74.9142 32.2803 73.3006 32.2803ZM65.7256 22.2707C65.8656 18.3088 67.8296 15.1808 70.8457 15.1808C74.0728 15.1808 75.0549 18.0309 75.0549 22.2707H65.7256Z" fill="white"/>
<path d="M393.716 64.6527V63.6598C393.962 63.5127 394.246 63.3288 394.567 63.1082C394.9 62.8753 395.227 62.6363 395.547 62.3911C395.88 62.1459 396.17 61.9314 396.417 61.7475C396.836 61.4411 397.213 61.1163 397.546 60.773C397.891 60.4298 398.187 60.0804 398.434 59.725C398.681 59.3572 398.872 58.9833 399.007 58.6033C399.143 58.2111 399.211 57.8066 399.211 57.3898C399.211 56.8137 399.125 56.3601 398.952 56.0291C398.779 55.6982 398.539 55.4714 398.23 55.3488C397.934 55.214 397.595 55.1466 397.213 55.1466C396.781 55.1466 396.386 55.2262 396.028 55.3856C395.683 55.545 395.412 55.7472 395.214 55.9924C395.313 56.115 395.406 56.2498 395.492 56.3969C395.591 56.544 395.677 56.685 395.751 56.8198C395.825 56.9546 395.862 57.0711 395.862 57.1691C395.862 57.3775 395.751 57.5798 395.529 57.7759C395.319 57.9598 395.06 58.0517 394.752 58.0517C394.357 58.0517 394.073 57.9475 393.901 57.7392C393.74 57.5185 393.66 57.255 393.66 56.9485C393.66 56.4704 393.827 56.023 394.16 55.6062C394.505 55.1895 394.968 54.8524 395.547 54.5949C396.127 54.3253 396.769 54.1904 397.472 54.1904C398.187 54.1904 398.816 54.3069 399.359 54.5398C399.902 54.7727 400.327 55.1159 400.636 55.5695C400.944 56.023 401.098 56.5869 401.098 57.2611C401.098 57.7514 401.018 58.2233 400.858 58.6769C400.697 59.1182 400.444 59.5533 400.099 59.9824C399.754 60.4114 399.316 60.8404 398.785 61.2695C398.255 61.6985 397.614 62.1398 396.861 62.5934L395.862 63.2001V63.2921H398.508C398.903 63.2921 399.229 63.2737 399.488 63.2369C399.747 63.1879 399.97 63.0959 400.155 62.9611C400.34 62.8263 400.5 62.6301 400.636 62.3727C400.771 62.1153 400.913 61.7782 401.061 61.3614H401.968L401.709 64.6527H393.716Z" fill="#EDEEFA" fill-opacity="0.5"/>
<path d="M381.255 67.8705L381.126 66.9327C381.816 66.8469 382.476 66.6692 383.105 66.3995C383.734 66.1421 384.302 65.7866 384.808 65.333C385.326 64.8918 385.751 64.3401 386.084 63.6782C386.43 63.004 386.652 62.2195 386.75 61.3246L386.769 61.1959C386.46 61.6495 386.066 62.0234 385.585 62.3176C385.104 62.6117 384.518 62.7588 383.827 62.7588C383.087 62.7588 382.421 62.6117 381.829 62.3176C381.249 62.0111 380.786 61.5514 380.441 60.9385C380.108 60.3256 379.941 59.5595 379.941 58.6401C379.941 57.6717 380.133 56.8627 380.515 56.213C380.91 55.5511 381.44 55.0485 382.106 54.7053C382.772 54.362 383.519 54.1904 384.345 54.1904C385.406 54.1904 386.251 54.4356 386.88 54.9259C387.521 55.4162 387.978 56.0843 388.249 56.9301C388.533 57.7759 388.675 58.7259 388.675 59.7801C388.675 60.8956 388.539 61.8885 388.268 62.7588C388.008 63.6169 387.638 64.3585 387.157 64.9837C386.689 65.6211 386.14 66.1421 385.511 66.5466C384.882 66.9634 384.203 67.276 383.475 67.4843C382.748 67.705 382.008 67.8337 381.255 67.8705ZM384.308 61.5085C384.69 61.5085 385.067 61.4166 385.437 61.2327C385.819 61.0366 386.14 60.7363 386.399 60.3317C386.658 59.915 386.787 59.3572 386.787 58.6585C386.787 57.9843 386.707 57.3959 386.547 56.8933C386.386 56.3908 386.121 55.9924 385.751 55.6982C385.381 55.404 384.869 55.2569 384.215 55.2569C383.747 55.2569 383.327 55.3733 382.957 55.6062C382.6 55.8269 382.316 56.1701 382.106 56.6359C381.897 57.0895 381.792 57.6779 381.792 58.4011C381.792 59.1733 381.89 59.7863 382.088 60.2398C382.297 60.6934 382.587 61.0182 382.957 61.2143C383.34 61.4105 383.79 61.5085 384.308 61.5085Z" fill="#EDEEFA" fill-opacity="0.5"/>
<path d="M367.63 67.8705L367.501 66.9327C368.191 66.8469 368.851 66.6692 369.48 66.3995C370.109 66.1421 370.677 65.7866 371.183 65.333C371.701 64.8918 372.126 64.3401 372.459 63.6782C372.805 63.004 373.027 62.2195 373.125 61.3246L373.144 61.1959C372.835 61.6495 372.441 62.0234 371.96 62.3176C371.479 62.6117 370.893 62.7588 370.202 62.7588C369.462 62.7588 368.796 62.6117 368.204 62.3176C367.624 62.0111 367.161 61.5514 366.816 60.9385C366.483 60.3256 366.316 59.5595 366.316 58.6401C366.316 57.6717 366.508 56.8627 366.89 56.213C367.285 55.5511 367.815 55.0485 368.481 54.7053C369.147 54.362 369.894 54.1904 370.72 54.1904C371.781 54.1904 372.626 54.4356 373.255 54.9259C373.896 55.4162 374.353 56.0843 374.624 56.9301C374.908 57.7759 375.05 58.7259 375.05 59.7801C375.05 60.8956 374.914 61.8885 374.643 62.7588C374.383 63.6169 374.013 64.3585 373.532 64.9837C373.064 65.6211 372.515 66.1421 371.886 66.5466C371.257 66.9634 370.578 67.276 369.85 67.4843C369.123 67.705 368.383 67.8337 367.63 67.8705ZM370.683 61.5085C371.065 61.5085 371.442 61.4166 371.812 61.2327C372.194 61.0366 372.515 60.7363 372.774 60.3317C373.033 59.915 373.162 59.3572 373.162 58.6585C373.162 57.9843 373.082 57.3959 372.922 56.8933C372.761 56.3908 372.496 55.9924 372.126 55.6982C371.756 55.404 371.244 55.2569 370.59 55.2569C370.122 55.2569 369.702 55.3733 369.332 55.6062C368.975 55.8269 368.691 56.1701 368.481 56.6359C368.272 57.0895 368.167 57.6779 368.167 58.4011C368.167 59.1733 368.265 59.7863 368.463 60.2398C368.672 60.6934 368.962 61.0182 369.332 61.2143C369.715 61.4105 370.165 61.5085 370.683 61.5085Z" fill="#EDEEFA" fill-opacity="0.5"/>
<path d="M356.054 64.6527V63.8437L357.627 63.6598C357.874 63.6353 358.028 63.5679 358.089 63.4576C358.151 63.3472 358.182 63.1634 358.182 62.9059V56.5624C358.182 56.1701 358.133 55.9066 358.034 55.7717C357.948 55.6369 357.732 55.5695 357.386 55.5695H355.869L355.962 54.6685L359.588 54.1904L359.903 54.3927V62.9243C359.903 63.1572 359.934 63.335 359.995 63.4576C360.057 63.5679 360.217 63.6353 360.476 63.6598L361.919 63.8253V64.6527H356.054Z" fill="#EDEEFA" fill-opacity="0.5"/>
<path d="M335.801 64.6528V63.8805L336.689 63.7518C336.923 63.715 337.065 63.6415 337.114 63.5312C337.176 63.4086 337.207 63.2308 337.207 62.9979V55.9924C337.207 55.7595 337.176 55.594 337.114 55.496C337.065 55.3979 336.917 55.3305 336.67 55.2937L335.801 55.165V54.4111H343.313L343.905 56.8382L343.054 57.0589C342.856 56.544 342.659 56.1579 342.462 55.9005C342.264 55.6431 342.018 55.4715 341.722 55.3857C341.426 55.2876 341.025 55.2386 340.519 55.2386H338.983V58.9895H340.241C340.636 58.9895 340.92 58.9711 341.092 58.9344C341.265 58.8853 341.395 58.775 341.481 58.6034C341.567 58.4318 341.648 58.156 341.722 57.776L342.462 57.7024V61.0121L341.722 61.1408C341.66 60.7731 341.592 60.5034 341.518 60.3318C341.456 60.1479 341.339 60.0315 341.167 59.9824C340.994 59.9212 340.704 59.8905 340.297 59.8905H338.983V63.807H341C341.382 63.807 341.697 63.7886 341.944 63.7518C342.203 63.7028 342.412 63.617 342.573 63.4944C342.745 63.3595 342.887 63.1695 342.998 62.9244C343.122 62.667 343.245 62.336 343.368 61.9315H344.256L343.886 64.6528H335.801Z" fill="#EDEEFA" fill-opacity="0.5"/>
<path d="M326.528 64.8551C325.331 64.8551 324.338 64.6283 323.549 64.1747C322.759 63.7089 322.161 63.0776 321.754 62.2809C321.359 61.4718 321.162 60.5708 321.162 59.5779C321.162 58.4747 321.378 57.5247 321.81 56.7279C322.254 55.9189 322.858 55.2937 323.623 54.8524C324.388 54.4112 325.27 54.1905 326.269 54.1905C326.984 54.1905 327.552 54.2947 327.971 54.5031C328.39 54.6992 328.717 54.9015 328.952 55.1099L329.118 54.1721H329.895L330.506 57.5921L329.599 57.7944C329.402 57.2183 329.155 56.7341 328.859 56.3418C328.575 55.9495 328.23 55.6553 327.823 55.4592C327.416 55.2631 326.923 55.165 326.343 55.165C325.788 55.165 325.307 55.2631 324.9 55.4592C324.505 55.6553 324.172 55.9434 323.9 56.3234C323.641 56.6912 323.444 57.1325 323.308 57.6473C323.185 58.1621 323.123 58.7383 323.123 59.3757C323.123 60.2828 323.278 61.0673 323.586 61.7292C323.907 62.3912 324.32 62.8999 324.826 63.2554C325.344 63.6109 325.911 63.7886 326.528 63.7886C327.12 63.7886 327.712 63.666 328.304 63.4209C328.908 63.1757 329.451 62.7467 329.932 62.1338L330.709 62.6854C330.475 63.0286 330.167 63.3718 329.784 63.7151C329.402 64.046 328.939 64.3218 328.397 64.5425C327.866 64.7509 327.243 64.8551 326.528 64.8551Z" fill="#EDEEFA" fill-opacity="0.5"/>
<path d="M304.826 64.6528V63.8621L305.751 63.7334C305.961 63.7089 306.091 63.6415 306.14 63.5312C306.202 63.4086 306.232 63.2247 306.232 62.9795V55.9924C306.232 55.7595 306.202 55.6002 306.14 55.5144C306.091 55.4163 305.955 55.3489 305.733 55.3121L304.826 55.165V54.4111H308.379L313.633 62.575L313.652 62.5566V55.9924C313.652 55.7595 313.621 55.6002 313.559 55.5144C313.51 55.4163 313.362 55.3489 313.115 55.3121L312.264 55.165V54.4111H316.15V55.165L315.262 55.3121C315.027 55.3489 314.885 55.4224 314.836 55.5327C314.787 55.6431 314.762 55.8147 314.762 56.0476V64.6528H312.967L307.38 56.1763H307.324V63.0531C307.324 63.286 307.355 63.4515 307.417 63.5495C307.491 63.6476 307.645 63.7089 307.879 63.7334L308.749 63.8621V64.6528H304.826Z" fill="#EDEEFA" fill-opacity="0.5"/>
<path d="M294.852 64.6528V63.8989L295.795 63.7518C296.042 63.715 296.19 63.6476 296.239 63.5495C296.289 63.4392 296.313 63.2554 296.313 62.9979V56.0108C296.313 55.7657 296.282 55.6002 296.221 55.5144C296.171 55.4163 296.023 55.3489 295.777 55.3121L294.852 55.1834V54.4111H299.551V55.165L298.589 55.3121C298.367 55.3489 298.225 55.4224 298.164 55.5327C298.114 55.6308 298.089 55.8024 298.089 56.0476V63.0531C298.089 63.286 298.114 63.4576 298.164 63.5679C298.225 63.666 298.373 63.7273 298.608 63.7518L299.551 63.8989V64.6528H294.852Z" fill="#EDEEFA" fill-opacity="0.5"/>
<path d="M285.988 64.855C285.347 64.855 284.779 64.763 284.286 64.5792C283.805 64.383 283.423 64.1685 283.139 63.9356L282.898 64.7447H282.158L281.844 61.6556L282.769 61.5637C282.991 62.0785 283.262 62.5076 283.583 62.8508C283.904 63.194 284.255 63.4514 284.638 63.623C285.02 63.7824 285.433 63.8621 285.877 63.8621C286.334 63.8621 286.71 63.7947 287.006 63.6598C287.314 63.5127 287.543 63.3166 287.691 63.0714C287.839 62.8263 287.913 62.5505 287.913 62.244C287.913 61.8395 287.802 61.5146 287.58 61.2695C287.357 61.0121 287.055 60.8037 286.673 60.6443C286.303 60.485 285.896 60.3379 285.452 60.203C285.032 60.0559 284.625 59.9088 284.231 59.7617C283.848 59.6146 283.503 59.4308 283.194 59.2101C282.886 58.9772 282.639 58.6953 282.454 58.3643C282.282 58.0211 282.195 57.6043 282.195 57.114C282.195 56.7585 282.263 56.4091 282.399 56.0659C282.547 55.7104 282.763 55.3917 283.046 55.1098C283.33 54.8279 283.688 54.6072 284.12 54.4478C284.564 54.2762 285.082 54.1904 285.674 54.1904C286.105 54.1904 286.531 54.264 286.95 54.4111C287.382 54.5459 287.752 54.7298 288.061 54.9627L288.264 54.1904H289.023L289.374 57.2243L288.449 57.3714C288.264 56.7953 288.03 56.3479 287.746 56.0291C287.475 55.6982 287.166 55.4653 286.821 55.3304C286.488 55.1833 286.13 55.1098 285.748 55.1098C285.205 55.1098 284.755 55.2446 284.397 55.5143C284.052 55.784 283.879 56.164 283.879 56.6543C283.879 57.0221 283.984 57.3224 284.194 57.5553C284.403 57.7882 284.693 57.9904 285.063 58.1621C285.446 58.3214 285.871 58.4746 286.34 58.6217C286.932 58.8056 287.438 59.0017 287.857 59.2101C288.276 59.4063 288.616 59.6269 288.875 59.8721C289.134 60.105 289.319 60.3746 289.43 60.6811C289.553 60.9753 289.615 61.3124 289.615 61.6924C289.615 62.1214 289.535 62.5259 289.374 62.9059C289.226 63.2737 288.992 63.6047 288.671 63.8988C288.363 64.193 287.987 64.4259 287.543 64.5976C287.098 64.7692 286.58 64.855 285.988 64.855Z" fill="#EDEEFA" fill-opacity="0.5"/>
</svg>
